<?xml version="1.0" encoding="iso-8859-1"?>
<!-- Generator: Adobe Illustrator 15.1.0, SVG Export Plug-In . SVG Version: 6.00 Build 0)  -->
<!DOCTYPE svg PUBLIC "-//W3C//DTD SVG 1.1//EN" "http://www.w3.org/Graphics/SVG/1.1/DTD/svg11.dtd">
<svg version="1.1" id="Layer_1" xmlns="http://www.w3.org/2000/svg" xmlns:xlink="http://www.w3.org/1999/xlink" x="0px" y="0px"
	 width="32px" height="32px" viewBox="0 0 32 32" enable-background="new 0 0 32 32" xml:space="preserve">
<g>
	<path fill="#FFFFFF" d="M27.87,15.52c-0.01-0.27-0.22-0.6-0.46-0.72l-2.44-1.2c-0.25-0.12-0.53-0.43-0.64-0.68l-1.04-1.99
		c-0.15-0.23-0.24-0.64-0.2-0.92l0.41-2.7c0.04-0.27-0.1-0.63-0.32-0.8c0,0-0.38-0.3-0.8-0.56c-0.42-0.27-0.85-0.48-0.85-0.48
		c-0.25-0.12-0.63-0.1-0.86,0.06L18.4,7.04c-0.23,0.15-0.64,0.25-0.91,0.21l-2.24-0.1c-0.27,0.01-0.67-0.12-0.89-0.29l-2.13-1.7
		c-0.21-0.17-0.6-0.22-0.85-0.11l-1.73,0.9c-0.24,0.14-0.42,0.48-0.4,0.75l0.18,2.73c0.02,0.27-0.11,0.67-0.29,0.88
		c0,0-0.38,0.44-0.67,0.91s-0.53,1-0.53,1c-0.11,0.25-0.42,0.54-0.67,0.64l-2.55,1c-0.26,0.1-0.49,0.41-0.51,0.68l-0.07,1.95
		c0.01,0.27,0.22,0.6,0.46,0.72l2.44,1.2c0.25,0.12,0.53,0.43,0.64,0.68l1.04,1.99c0.15,0.23,0.24,0.64,0.2,0.91l-0.41,2.7
		c-0.04,0.27,0.1,0.63,0.32,0.8c0,0,0.38,0.3,0.8,0.57c0.42,0.27,0.85,0.48,0.85,0.48c0.25,0.12,0.63,0.1,0.86-0.06l2.27-1.52
		c0.23-0.15,0.64-0.25,0.91-0.21l2.24,0.1c0.27-0.01,0.67,0.12,0.89,0.29l2.13,1.7c0.21,0.17,0.6,0.22,0.85,0.11l1.73-0.9
		c0.24-0.14,0.42-0.48,0.4-0.75l-0.18-2.73c-0.02-0.27,0.11-0.67,0.29-0.88c0,0,0.38-0.44,0.67-0.91s0.53-1,0.53-1
		c0.11-0.25,0.42-0.54,0.67-0.64l2.55-1c0.26-0.1,0.49-0.41,0.51-0.68L27.87,15.52z M16,22c-3.31,0-6-2.69-6-6s2.69-6,6-6
		s6,2.69,6,6S19.31,22,16,22z"/>
</g>
</svg>
