<?xml version="1.0" encoding="iso-8859-1"?>
<!DOCTYPE svg PUBLIC "-//W3C//DTD SVG 1.1//EN" "http://www.w3.org/Graphics/SVG/1.1/DTD/svg11.dtd">
<svg version="1.1" id="Layer_1" xmlns="http://www.w3.org/2000/svg" xmlns:xlink="http://www.w3.org/1999/xlink" x="0px" y="0px"
	 width="32px" height="32px" viewBox="0 0 32 32" enable-background="new 0 0 32 32" xml:space="preserve">
<path fill="#505050" d="M16,4.19c-6.36,0-11.86,5-12.45,11.34c-0.58,6.34,3.89,12.28,10.16,13.45c6.27,1.16,12.59-2.77,14.32-8.91
	c1.73-6.15-1.64-12.8-7.6-15.07C19.02,4.46,17.51,4.19,16,4.19C9.11,4.19,22.89,4.19,16,4.19z M16,28.19
	c-7.47,0-13.05-7.33-11.08-14.53c0.35,0.54,0.67-0.32,1.05-0.29c0.58,0.04-0.15,1.17-0.24,1.32c-0.29,0.5-0.99,2.87-0.05,1.5
	c0.66-0.97,1.24-1.99,1.95-2.92c0.96-1.25,2.38-2,3.15-3.43c0.82-1.52,2.12-2.43,3.72-3.09c0.7-0.29,1.24-0.03,1.93,0.16
	c0.77,0.22,0.91,0.09,1.3-0.45c0.82-1.11,1.77,0.93,1.59,1.65c-0.38,1.48-2.49,0.54-3.28,0.08c-0.55-0.32-0.96,0.11-1.28,0.56
	c-0.47,0.65-1.13,1.09-1.6,1.72c-0.5,0.66,0.39,1.24,0.09,1.82c-0.27,0.52-1.31,0.74-1.56,0.12c-0.11-0.28-0.27-1.43-0.71-0.72
	c-0.42,0.68-0.12,1.36-0.07,2.08c0.05,0.77-0.51,0.75-0.92,1.22c-0.36,0.42,0.05,1.42-0.47,1.68c-0.92,0.46-1.7,2.06-1.61,3.05
	c0.06,0.65,0.31,1.33,0.88,1.69c0.8,0.51,1.74-0.02,2.54,0.37c0.39,0.19,0.88,0.72,1.1,1.1c0.25,0.46,0.98,1.03,1.01,1.56
	c0.09,1.29,1.24,3.31,2.78,2.44c0.82-0.46,2.41-1.68,2.35-2.73c-0.08-1.33,2.45-1.83,2.14-3.09c-0.14-0.59,0.91-1.01,1.26-1.37
	c0.64-0.67,0.5-1.29,1.59-1.33c0.53-0.02,1.03,0.27,1.15,0.79c0.19,0.85,0.76,1.44,1.06,0.25c0.08-0.33,0.08-1.66,0.63-1.63
	c1.11,0.06,1,0.69,0.8,1.53c-0.4,1.7-1.19,3.3-2.3,4.65C22.72,26.62,19.42,28.19,16,28.19C9.66,28.19,21.83,28.19,16,28.19z
	 M15.17,17.88c-0.56,0-1.29-0.07-1.71-0.5c-0.44-0.44-0.73-0.97-1.4-1.13c-1.3-0.32-0.35-0.78,0.51-0.83
	c1.16,0.03,2.81,0.67,3.86,1.16C18.61,17.6,16.15,17.88,15.17,17.88C14.13,17.88,16.21,17.88,15.17,17.88z"/>
</svg>
