<?xml version="1.0" encoding="iso-8859-1"?>
<!DOCTYPE svg PUBLIC "-//W3C//DTD SVG 1.0//EN" "http://www.w3.org/TR/2001/REC-SVG-20010904/DTD/svg10.dtd">
<svg version="1.0" id="Layer_1" xmlns="http://www.w3.org/2000/svg" xmlns:xlink="http://www.w3.org/1999/xlink" x="0px" y="0px"
	 width="32px" height="32px" viewBox="0 0 32 32" enable-background="new 0 0 32 32" xml:space="preserve">
<path fill="#505050" d="M26,20v-0.04c2.25-0.22,4-1.9,4-3.96c0-2.21-2.01-4-4.5-4c-0.61,0-1.2,0.11-1.73,0.31
	C23.92,11.73,24,11.12,24,10.5C24,6.36,20.64,3,16.5,3c-3.69,0-6.76,2.67-7.38,6.19C8.7,9.07,8.26,9,7.8,9c-2.87,0-5.2,2.46-5.2,5.5
	c0,3.04,2.33,5.5,5.2,5.5c0.07,0,0.13-0.01,0.2-0.01V20h7.5v1.05c-1.25,0.21-2.24,1.2-2.45,2.45H5v1h8.05
	C13.29,25.92,14.51,27,16,27c1.49,0,2.71-1.08,2.95-2.5H28v-1h-9.05c-0.21-1.25-1.2-2.24-2.45-2.45V20H26z M18,24c0,1.1-0.9,2-2,2
	s-2-0.9-2-2s0.9-2,2-2S18,22.9,18,24z M14.5,18v-4.36h-2.15L15.99,10l3.64,3.64H17.5V18H14.5z"/>
</svg>
