<?xml version="1.0" encoding="utf-8"?>
<!DOCTYPE svg PUBLIC "-//W3C//DTD SVG 1.1//EN" "http://www.w3.org/Graphics/SVG/1.1/DTD/svg11.dtd">
<svg version="1.1" id="Layer_1" xmlns="http://www.w3.org/2000/svg" xmlns:xlink="http://www.w3.org/1999/xlink" x="0px" y="0px"
	 width="32px" height="32px" viewBox="0.5 16.5 32 32" enable-background="new 0.5 16.5 32 32" xml:space="preserve">
<g>
	<polygon fill="#505050" points="10.5,19.5 7.5,19.5 7.5,24.451 10.5,22.176 	"/>
	<circle fill="#505050" cx="17" cy="29" r="0.5"/>
	<rect x="13.5" y="24.5" fill="#505050" width="6" height="3"/>
	<circle fill="#505050" cx="19" cy="29" r="0.5"/>
	<path fill="#505050" d="M30.436,29.5H30.5L17,18.5L2.503,29.498L2.5,29.499l-1.123,0.843l0.918,0.918l2.464-1.76H6.5v16h20v-16
		h1.677l2.404,1.718L31.5,30.3L30.436,29.5z M22.5,42.5c-1.104,0-2-0.896-2-2c0-0.881,0.573-1.62,1.364-1.887
		c-0.661-4.509-3.661-5.396-4.864-5.568v5.525c0.861,0.224,1.5,0.999,1.5,1.93c0,1.104-0.896,2-2,2s-2-0.896-2-2
		c0-0.931,0.639-1.706,1.5-1.93v-5.522c-1.204,0.18-4.2,1.083-4.863,5.565C11.927,38.88,12.5,39.619,12.5,40.5c0,1.104-0.896,2-2,2
		s-2-0.896-2-2c0-0.982,0.709-1.795,1.643-1.964c0.754-5.272,4.49-6.298,5.857-6.49V31.5v-1h-2.5c-0.552,0-1-0.521-1-1.167v-4.666
		c0-0.646,0.448-1.167,1-1.167h6c0.553,0,1,0.521,1,1.167v4.666c0,0.646-0.447,1.167-1,1.167H17v1v0.548
		c1.357,0.189,5.104,1.201,5.857,6.488c0.934,0.169,1.643,0.981,1.643,1.964C24.5,41.604,23.604,42.5,22.5,42.5z"/>
</g>
</svg>
