<?xml version="1.0" encoding="iso-8859-1"?>
<!-- Generator: Adobe Illustrator 15.1.0, SVG Export Plug-In . SVG Version: 6.00 Build 0)  -->
<!DOCTYPE svg PUBLIC "-//W3C//DTD SVG 1.0//EN" "http://www.w3.org/TR/2001/REC-SVG-20010904/DTD/svg10.dtd">
<svg version="1.0" id="Layer_1" xmlns="http://www.w3.org/2000/svg" xmlns:xlink="http://www.w3.org/1999/xlink" x="0px" y="0px"
	 width="60px" height="30px" viewBox="0 0 60 30" enable-background="new 0 0 60 30" xml:space="preserve">
<g>
	<polygon fill="#CD2027" points="31,11 25,18 29,18 26,23 33,16 29,16 	"/>
	<path fill="#CD2027" d="M42,8c-0.52,0-1.03,0.05-1.53,0.14C38.41,4.48,34.5,2,30,2c-6.15,0-11.2,4.62-11.91,10.58
		C16.82,11.59,15.23,11,13.5,11C9.36,11,6,14.36,6,18.5c0,4.14,3.36,7.5,7.5,7.5c0.17,0,0.33-0.01,0.5-0.03V26h28c4.97,0,9-4.03,9-9
		S46.97,8,42,8z M33.71,16.71l-7,7C26.51,23.9,26.26,24,26,24c-0.22,0-0.43-0.07-0.61-0.21c-0.4-0.31-0.5-0.87-0.24-1.3L27.23,19H25
		c-0.39,0-0.75-0.23-0.91-0.58c-0.16-0.35-0.1-0.77,0.15-1.07l6-7c0.01-0.01,0.01-0.02,0.02-0.02c0.07-0.07,0.14-0.13,0.22-0.18
		c0.14-0.08,0.3-0.14,0.47-0.14c0.02,0,0.03,0,0.05,0c0,0,0.01,0,0.01,0c0.55,0,0.99,0.45,0.99,1c0,0.15-0.04,0.3-0.1,0.43L30.48,15
		H33c0.4,0,0.77,0.24,0.92,0.62C34.08,15.99,33.99,16.42,33.71,16.71z"/>
</g>
</svg>
