<?xml version="1.0" encoding="iso-8859-1"?>
<!-- Generator: Adobe Illustrator 15.1.0, SVG Export Plug-In . SVG Version: 6.00 Build 0)  -->
<!DOCTYPE svg PUBLIC "-//W3C//DTD SVG 1.0//EN" "http://www.w3.org/TR/2001/REC-SVG-20010904/DTD/svg10.dtd">
<svg version="1.0" id="Layer_1" xmlns="http://www.w3.org/2000/svg" xmlns:xlink="http://www.w3.org/1999/xlink" x="0px" y="0px"
	 width="60px" height="30px" viewBox="0 0 60 30" enable-background="new 0 0 60 30" xml:space="preserve">
<path fill="#323232" d="M45.7,14.5c-0.25-1.07-0.59-2.14-1.13-3.19c-0.53-1.01-1.1-2.38-2.63-2.87c-0.82-0.3-1.76-0.23-2.51,0.12
	c0.08-0.31,0.12-0.63,0.09-0.97c-0.05-0.47-0.32-0.98-0.77-1.36c-0.46-0.37-1.03-0.62-1.55-0.74c-1.08-0.25-1.93,0.06-2.59,0.41
	c-0.66,0.41-1.21,0.84-1.65,1.41l0.17,0.29c0.67-0.08,1.31-0.15,1.89-0.07c0.37,0.03,0.69,0.12,0.92,0.24
	c-0.13-0.04-0.25-0.1-0.38-0.13c-1.19-0.31-2.32,0.33-3.27,0.78c-0.98,0.46-1.85,1.06-2.59,1.76c-0.73,0.72-1.41,1.45-1.93,2.31
	L28,12.73c1.68-0.91,3.47-1.49,5.09-1.74c0.84-0.11,1.61,0.22,2.3,0.01c0.34-0.09,0.68-0.18,1.07-0.29
	c-3.41,4.15-5.51,10.15-6.37,12.99C29.21,23.3,28.19,23,26.98,23c-4.22,0-10.55,5.28-10.55,5.28h21.11c0,0-2.11-1.76-3.17-1.76
	c-0.4,0-0.96-0.5-1.72-1.13l0.83,0.16l-0.7-0.56l1.19-1.05l-1.43,0.39l0.63-1.78l-1.2,0.85c0.95-2.95,2.9-8.09,5.81-11.63
	c-0.08,0.32-0.16,0.61-0.19,0.94c-0.15,0.7,0.29,1.46,0.36,2.31c0.07,0.83,0.1,1.7,0.11,2.59c0.04,0.89-0.01,1.79-0.02,2.71
	l0.32,0.11c0.53-0.78,0.93-1.62,1.34-2.47c0.38-0.86,0.7-1.75,0.92-2.7c0.22-0.93,0.69-1.97,0.29-3.03c-0.07-0.2-0.16-0.4-0.27-0.6
	c0.41,0.35,1.13,0.62,1.71,1.23c0.63,0.67,1.23,1.48,1.8,2.32c0.6,0.84,1.1,1.75,1.63,2.67l0.32-0.08
	C46.08,16.64,45.9,15.58,45.7,14.5z"/>
</svg>
