<?xml version="1.0" encoding="iso-8859-1"?>
<!DOCTYPE svg PUBLIC "-//W3C//DTD SVG 1.0//EN" "http://www.w3.org/TR/2001/REC-SVG-20010904/DTD/svg10.dtd">
<svg version="1.0" id="Layer_1" xmlns="http://www.w3.org/2000/svg" xmlns:xlink="http://www.w3.org/1999/xlink" x="0px" y="0px"
	 width="16px" height="16px" viewBox="0 0 16 16" enable-background="new 0 0 16 16" xml:space="preserve">
<g>
	<path fill="#FFFFFF" d="M3,15.5c-1.38,0-2.5-1.12-2.5-2.5V3c0-1.38,1.12-2.5,2.5-2.5h10c1.38,0,2.5,1.12,2.5,2.5v10
		c0,1.38-1.12,2.5-2.5,2.5H3z"/>
	<path fill="#6B6B6B" d="M13,1c1.1,0,2,0.9,2,2v10c0,1.1-0.9,2-2,2H3c-1.1,0-2-0.9-2-2V3c0-1.1,0.9-2,2-2H13 M13,0H3
		C1.34,0,0,1.34,0,3v10c0,1.66,1.34,3,3,3h10c1.66,0,3-1.34,3-3V3C16,1.34,14.66,0,13,0L13,0z"/>
</g>
</svg>
