<?xml version="1.0" encoding="iso-8859-1"?>
<!DOCTYPE svg PUBLIC "-//W3C//DTD SVG 1.0//EN" "http://www.w3.org/TR/2001/REC-SVG-20010904/DTD/svg10.dtd">
<svg version="1.0" id="Layer_1" xmlns="http://www.w3.org/2000/svg" xmlns:xlink="http://www.w3.org/1999/xlink" x="0px" y="0px"
	 width="16px" height="16px" viewBox="0 0 16 16" enable-background="new 0 0 16 16" xml:space="preserve">
<path fill="#0069A9" d="M15,12.37c0,1.45-1.18,2.63-2.62,2.63H3.63C2.18,15,1,13.83,1,12.37V3.62C1,2.17,2.18,1,3.63,1h8.75
	C13.82,1,15,2.17,15,3.62V12.37z"/>
<path fill="#FFFFFF" d="M12.29,4.46c-0.32-0.24-0.78-0.19-1.02,0.13L6.9,10.29L5.06,8.43c-0.29-0.29-0.75-0.29-1.03,0
	c-0.28,0.29-0.29,0.75,0,1.04l2.43,2.44c0,0,0.01,0,0.01,0.01c0.02,0.02,0.03,0.03,0.05,0.05C6.56,12,6.6,12.01,6.64,12.03
	c0.02,0.02,0.05,0.03,0.08,0.04c0.08,0.03,0.17,0.05,0.25,0.05l0,0l0,0l0,0c0.08,0,0.17-0.02,0.25-0.05c0.01,0,0.02-0.01,0.04-0.01
	c0.08-0.04,0.15-0.08,0.21-0.14c0,0,0.01,0,0.02-0.01c0.01-0.01,0.01-0.02,0.01-0.02c0.02-0.01,0.03-0.03,0.05-0.05l4.87-6.35
	C12.66,5.17,12.6,4.71,12.29,4.46z"/>
</svg>
