<?xml version="1.0" encoding="iso-8859-1"?>
<!DOCTYPE svg PUBLIC "-//W3C//DTD SVG 1.0//EN" "http://www.w3.org/TR/2001/REC-SVG-20010904/DTD/svg10.dtd">
<svg version="1.0" id="Layer_1" xmlns="http://www.w3.org/2000/svg" xmlns:xlink="http://www.w3.org/1999/xlink" x="0px" y="0px"
	 width="16px" height="16px" viewBox="0 0 16 16" enable-background="new 0 0 16 16" xml:space="preserve">
<path fill="#317ABE" d="M16,13c0,1.66-1.34,3-3,3H3c-1.66,0-3-1.34-3-3V3c0-1.66,1.34-3,3-3h10c1.66,0,3,1.34,3,3V13z"/>
<path fill="#FFFFFF" d="M12.91,3.98c-0.37-0.28-0.89-0.21-1.17,0.15l-4.97,6.49l-2.1-2.11c-0.33-0.33-0.85-0.33-1.18,0
	c-0.32,0.33-0.33,0.86,0,1.18l2.78,2.78c0,0,0.01,0,0.02,0.01c0.02,0.02,0.04,0.04,0.06,0.05c0.04,0.04,0.09,0.05,0.13,0.07
	c0.03,0.02,0.06,0.03,0.09,0.04c0.1,0.03,0.19,0.06,0.29,0.06l0,0l0,0l0,0c0.09,0,0.19-0.02,0.28-0.06
	c0.02-0.01,0.03-0.01,0.04-0.02c0.09-0.04,0.17-0.1,0.24-0.16c0.01,0,0.02,0,0.02-0.01c0.01-0.01,0.01-0.02,0.02-0.02
	c0.02-0.01,0.04-0.03,0.06-0.06l5.55-7.24C13.33,4.79,13.27,4.26,12.91,3.98z"/>
</svg>
